<?xml version="1.0" encoding="iso-8859-1"?>
<!-- Generator: Adobe Illustrator 19.0.0, SVG Export Plug-In . SVG Version: 6.00 Build 0)  -->
<svg version="1.1" id="Capa_1" xmlns="http://www.w3.org/2000/svg" xmlns:xlink="http://www.w3.org/1999/xlink" x="0px" y="0px"
	 viewBox="0 0 512 512" style="enable-background:new 0 0 512 512;" xml:space="preserve">
<path style="fill:#ACABB1;" d="M307.89,315.967l-62.499,16.848L175.937,75.52c-7.75-28.75,5.145-58.201,29.608-72.602
	c0.92-0.554,1.851-1.067,2.803-1.569c6.62-3.462,14.746,0.021,16.807,7.195l1.673,5.867l72.623,270.17L307.89,315.967z"/>
<path style="fill:#C6C5CA;" d="M299.449,284.582l-23.73,6.4L206.266,33.687c-2.803-10.416-2.907-20.917-0.722-30.768
	c0.92-0.554,1.851-1.067,2.803-1.569c6.62-3.462,14.746,0.021,16.807,7.195l1.673,5.867L299.449,284.582z"/>
<path style="fill:#E0E0E2;" d="M336.21,75.52l-69.443,257.296l-37.012-9.977l-25.497-6.871L285.32,14.412l1.684-5.867
	c2.05-7.174,10.186-10.657,16.796-7.195c4.769,2.489,9.13,5.543,13.042,9.046C334.485,26.178,342.799,51.1,336.21,75.52z"/>
<path style="fill:#C6C5CA;" d="M336.21,75.52l-69.443,257.296l-37.012-9.977l80.665-300.06l1.684-5.867
	c0.805-2.803,2.531-5.041,4.738-6.516C334.485,26.178,342.799,51.1,336.21,75.52z"/>
<path style="fill:#78B9EB;" d="M452.373,396.407c-13.177-48.914-63.513-77.873-112.417-64.695
	c-9.067,2.437-17.444,6.17-24.995,10.919l-27.652-102.596c-4.643-17.256-22.412-27.484-39.668-22.831
	c-14.443,3.891-23.96,16.953-23.96,31.229c0,2.792,0.366,5.627,1.13,8.45l50.901,188.898l0.042-0.01
	c13.857,47.899,63.576,76.074,111.925,63.053C436.591,495.646,465.551,445.31,452.373,396.407z M414.441,422.887
	c-1.454,27.966-25.288,49.457-53.254,48.004c-27.955-1.454-49.447-25.288-47.993-53.254c1.454-27.955,25.288-49.447,53.254-47.993
	C394.403,371.087,415.894,394.932,414.441,422.887z"/>
<path style="fill:#96C8EF;" d="M264.359,216.942c-17.256-4.654-35.025,5.574-39.679,22.831l-27.641,102.596
	c-7.551-4.748-15.928-8.482-24.995-10.918c-48.914-13.177-99.239,15.782-112.417,64.695
	c-13.177,48.903,15.782,99.239,64.695,112.417c48.349,13.021,98.068-15.154,111.925-63.053l0.042,0.01l50.901-188.898
	c0.763-2.824,1.129-5.658,1.129-8.45C288.319,233.895,278.802,220.832,264.359,216.942z M197.123,433.189
	c-7.279,27.035-35.098,43.046-62.133,35.757c-27.035-7.279-43.036-35.098-35.757-62.133c7.289-27.035,35.109-43.046,62.133-35.757
	C188.401,378.335,204.412,406.164,197.123,433.189z"/>
<circle style="fill:#1E81CE;" cx="255.999" cy="254.368" r="11.097"/>
<g>
</g>
<g>
</g>
<g>
</g>
<g>
</g>
<g>
</g>
<g>
</g>
<g>
</g>
<g>
</g>
<g>
</g>
<g>
</g>
<g>
</g>
<g>
</g>
<g>
</g>
<g>
</g>
<g>
</g>
</svg>
